<mxfile host="app.diagrams.net" agent="Mozilla/5.0 (Windows NT 10.0; Win64; x64) AppleWebKit/537.36 (KHTML, like Gecko) Chrome/132.0.0.0 YaBrowser/25.2.0.0 Safari/537.36" version="26.1.0">
  <diagram name="Страница — 1" id="e_K3P9kNI-bqg_lP3uax">
    <mxGraphModel dx="1035" dy="553" grid="1" gridSize="10" guides="1" tooltips="1" connect="1" arrows="1" fold="1" page="1" pageScale="1" pageWidth="827" pageHeight="1169" math="0" shadow="0">
      <root>
        <mxCell id="0" />
        <mxCell id="1" parent="0" />
        <mxCell id="J9xx-93wzo_tRQhmg1nY-10" style="edgeStyle=orthogonalEdgeStyle;rounded=0;orthogonalLoop=1;jettySize=auto;html=1;exitX=0.25;exitY=0;exitDx=0;exitDy=0;entryX=0.25;entryY=1;entryDx=0;entryDy=0;" edge="1" parent="1" source="J9xx-93wzo_tRQhmg1nY-1" target="J9xx-93wzo_tRQhmg1nY-2">
          <mxGeometry relative="1" as="geometry" />
        </mxCell>
        <mxCell id="J9xx-93wzo_tRQhmg1nY-1" value="БД пользователи&lt;div&gt;&lt;br&gt;&lt;/div&gt;" style="rounded=0;whiteSpace=wrap;html=1;" vertex="1" parent="1">
          <mxGeometry x="120" y="480" width="120" height="60" as="geometry" />
        </mxCell>
        <mxCell id="J9xx-93wzo_tRQhmg1nY-8" style="edgeStyle=orthogonalEdgeStyle;rounded=0;orthogonalLoop=1;jettySize=auto;html=1;exitX=0.25;exitY=1;exitDx=0;exitDy=0;entryX=0.25;entryY=0;entryDx=0;entryDy=0;" edge="1" parent="1" source="J9xx-93wzo_tRQhmg1nY-2" target="J9xx-93wzo_tRQhmg1nY-1">
          <mxGeometry relative="1" as="geometry" />
        </mxCell>
        <mxCell id="J9xx-93wzo_tRQhmg1nY-12" style="edgeStyle=orthogonalEdgeStyle;rounded=0;orthogonalLoop=1;jettySize=auto;html=1;exitX=0.25;exitY=0;exitDx=0;exitDy=0;" edge="1" parent="1" source="J9xx-93wzo_tRQhmg1nY-2">
          <mxGeometry relative="1" as="geometry">
            <mxPoint x="150" y="180" as="targetPoint" />
          </mxGeometry>
        </mxCell>
        <mxCell id="J9xx-93wzo_tRQhmg1nY-2" value="Сервак пользовательский" style="rounded=0;whiteSpace=wrap;html=1;" vertex="1" parent="1">
          <mxGeometry x="120" y="310" width="120" height="60" as="geometry" />
        </mxCell>
        <mxCell id="J9xx-93wzo_tRQhmg1nY-7" style="edgeStyle=orthogonalEdgeStyle;rounded=0;orthogonalLoop=1;jettySize=auto;html=1;exitX=0.25;exitY=1;exitDx=0;exitDy=0;entryX=0.25;entryY=1;entryDx=0;entryDy=0;" edge="1" parent="1" source="J9xx-93wzo_tRQhmg1nY-3" target="J9xx-93wzo_tRQhmg1nY-3">
          <mxGeometry relative="1" as="geometry" />
        </mxCell>
        <mxCell id="J9xx-93wzo_tRQhmg1nY-11" style="edgeStyle=orthogonalEdgeStyle;rounded=0;orthogonalLoop=1;jettySize=auto;html=1;exitX=0.25;exitY=1;exitDx=0;exitDy=0;entryX=0.25;entryY=0;entryDx=0;entryDy=0;" edge="1" parent="1" source="J9xx-93wzo_tRQhmg1nY-3" target="J9xx-93wzo_tRQhmg1nY-2">
          <mxGeometry relative="1" as="geometry" />
        </mxCell>
        <mxCell id="J9xx-93wzo_tRQhmg1nY-14" style="edgeStyle=orthogonalEdgeStyle;rounded=0;orthogonalLoop=1;jettySize=auto;html=1;exitX=0.5;exitY=1;exitDx=0;exitDy=0;entryX=0.5;entryY=0;entryDx=0;entryDy=0;" edge="1" parent="1" source="J9xx-93wzo_tRQhmg1nY-3" target="J9xx-93wzo_tRQhmg1nY-2">
          <mxGeometry relative="1" as="geometry" />
        </mxCell>
        <mxCell id="J9xx-93wzo_tRQhmg1nY-3" value="фронт пользователи" style="rounded=0;whiteSpace=wrap;html=1;" vertex="1" parent="1">
          <mxGeometry x="120" y="120" width="120" height="60" as="geometry" />
        </mxCell>
        <mxCell id="J9xx-93wzo_tRQhmg1nY-5" value="ФИ, ID, email, телефон&lt;div&gt;&lt;br&gt;&lt;/div&gt;" style="text;html=1;align=center;verticalAlign=middle;whiteSpace=wrap;rounded=0;" vertex="1" parent="1">
          <mxGeometry x="120" y="590" width="120" height="50" as="geometry" />
        </mxCell>
        <mxCell id="J9xx-93wzo_tRQhmg1nY-9" value="кэш пользователя хранит ID" style="text;html=1;align=center;verticalAlign=middle;whiteSpace=wrap;rounded=0;" vertex="1" parent="1">
          <mxGeometry x="250" y="120" width="70" height="50" as="geometry" />
        </mxCell>
        <mxCell id="J9xx-93wzo_tRQhmg1nY-13" value="авторизация" style="text;html=1;align=center;verticalAlign=middle;whiteSpace=wrap;rounded=0;" vertex="1" parent="1">
          <mxGeometry x="40" y="220" width="70" height="40" as="geometry" />
        </mxCell>
        <mxCell id="J9xx-93wzo_tRQhmg1nY-21" style="edgeStyle=orthogonalEdgeStyle;rounded=0;orthogonalLoop=1;jettySize=auto;html=1;exitX=0.75;exitY=0;exitDx=0;exitDy=0;" edge="1" parent="1" source="J9xx-93wzo_tRQhmg1nY-15">
          <mxGeometry relative="1" as="geometry">
            <mxPoint x="690" y="380" as="targetPoint" />
          </mxGeometry>
        </mxCell>
        <mxCell id="J9xx-93wzo_tRQhmg1nY-15" value="БД водители" style="rounded=0;whiteSpace=wrap;html=1;" vertex="1" parent="1">
          <mxGeometry x="600" y="480" width="120" height="60" as="geometry" />
        </mxCell>
        <mxCell id="J9xx-93wzo_tRQhmg1nY-16" value="ФИ, ID, email, телефон, паспортные данные, марка машины, номер, цвет, флаг активности" style="text;html=1;align=center;verticalAlign=middle;whiteSpace=wrap;rounded=0;" vertex="1" parent="1">
          <mxGeometry x="600" y="560" width="120" height="80" as="geometry" />
        </mxCell>
        <mxCell id="J9xx-93wzo_tRQhmg1nY-20" style="edgeStyle=orthogonalEdgeStyle;rounded=0;orthogonalLoop=1;jettySize=auto;html=1;exitX=0.75;exitY=1;exitDx=0;exitDy=0;entryX=0.75;entryY=0;entryDx=0;entryDy=0;" edge="1" parent="1" source="J9xx-93wzo_tRQhmg1nY-17" target="J9xx-93wzo_tRQhmg1nY-15">
          <mxGeometry relative="1" as="geometry" />
        </mxCell>
        <mxCell id="J9xx-93wzo_tRQhmg1nY-22" style="edgeStyle=orthogonalEdgeStyle;rounded=0;orthogonalLoop=1;jettySize=auto;html=1;exitX=0.75;exitY=0;exitDx=0;exitDy=0;entryX=0.75;entryY=1;entryDx=0;entryDy=0;" edge="1" parent="1" source="J9xx-93wzo_tRQhmg1nY-17" target="J9xx-93wzo_tRQhmg1nY-18">
          <mxGeometry relative="1" as="geometry">
            <mxPoint x="750" y="150" as="targetPoint" />
          </mxGeometry>
        </mxCell>
        <mxCell id="J9xx-93wzo_tRQhmg1nY-17" value="сервак таксисты" style="rounded=0;whiteSpace=wrap;html=1;" vertex="1" parent="1">
          <mxGeometry x="600" y="320" width="120" height="60" as="geometry" />
        </mxCell>
        <mxCell id="J9xx-93wzo_tRQhmg1nY-19" style="edgeStyle=orthogonalEdgeStyle;rounded=0;orthogonalLoop=1;jettySize=auto;html=1;exitX=0.75;exitY=1;exitDx=0;exitDy=0;entryX=0.75;entryY=0;entryDx=0;entryDy=0;" edge="1" parent="1" source="J9xx-93wzo_tRQhmg1nY-18" target="J9xx-93wzo_tRQhmg1nY-17">
          <mxGeometry relative="1" as="geometry" />
        </mxCell>
        <mxCell id="J9xx-93wzo_tRQhmg1nY-18" value="фронт таксисты" style="rounded=0;whiteSpace=wrap;html=1;" vertex="1" parent="1">
          <mxGeometry x="600" y="110" width="120" height="60" as="geometry" />
        </mxCell>
        <mxCell id="J9xx-93wzo_tRQhmg1nY-24" value="кэш хранит ID таксиста, координаты&amp;nbsp;" style="text;html=1;align=center;verticalAlign=middle;whiteSpace=wrap;rounded=0;" vertex="1" parent="1">
          <mxGeometry x="740" y="110" width="70" height="50" as="geometry" />
        </mxCell>
      </root>
    </mxGraphModel>
  </diagram>
</mxfile>
